<svg width="512px" height="468px" viewBox="0 0 512 468" version="1.1" xmlns="http://www.w3.org/2000/svg" xmlns:xlink="http://www.w3.org/1999/xlink">
	<!-- Generator: Sketch 43.1 (39012) - http://www.bohemiancoding.com/sketch -->
	<desc>Created with Sketch.</desc>
	<defs></defs>
	<g id="Page-1" stroke="none" stroke-width="1" fill="none" fill-rule="evenodd">
		<g id="email" transform="translate(-1.000000, 0.000000)" fill-rule="nonzero" fill="#000000">
			<path d="M366.17,0.988 L365.982,0.988 C360.212,0.988 355.533,5.666 355.533,11.437 C355.533,17.208 360.212,21.886 365.982,21.886 L366.17,21.886 C371.94,21.886 376.619,17.208 376.619,11.437 C376.619,5.666 371.94,0.988 366.17,0.988 Z" id="Shape"></path>
			<path
				d="M512.985,179.673 C512.985,179.569 512.999,179.466 512.995,179.361 C512.894,175.912 511.097,172.735 508.194,170.872 L468.069,145.118 L468.069,11.438 C468.069,5.667 463.39,0.989 457.62,0.989 L411.068,0.989 C405.298,0.989 400.619,5.667 400.619,11.438 C400.619,17.209 405.298,21.887 411.068,21.887 L447.171,21.887 L447.171,207.032 L312.244,305.192 L263.146,269.473 C259.483,266.806 254.515,266.806 250.852,269.473 L201.754,305.192 L66.829,207.033 L66.829,21.887 L319.66,21.887 C325.43,21.887 330.109,17.209 330.109,11.438 C330.109,5.667 325.43,0.989 319.66,0.989 L56.38,0.989 C50.61,0.989 45.931,5.667 45.931,11.438 L45.931,145.118 L5.805,170.871 C2.901,172.734 1.105,175.912 1.004,179.36 C1.001,179.462 1.013,179.562 1.013,179.664 C1.009,179.664 1.005,179.665 0.999,179.665 L0.999,456.563 C0.999,462.334 5.678,467.012 11.448,467.012 L502.55,467.012 C508.32,467.012 512.999,462.334 512.999,456.563 L512.999,179.665 C512.995,179.668 512.991,179.671 512.985,179.673 Z M468.069,169.95 L484.048,180.206 L468.069,191.831 L468.069,169.95 Z M45.931,169.95 L45.931,191.83 L29.952,180.205 L45.931,169.95 Z M21.898,200.188 L183.994,318.114 L21.898,436.04 L21.898,200.188 Z M43.573,446.114 L257,290.845 L470.427,446.115 L43.573,446.115 L43.573,446.114 Z M492.102,436.04 L330.006,318.114 L492.102,200.188 L492.102,436.04 Z"
				id="Shape"></path>
			<path
				d="M388.841,68.906 L125.527,68.906 C119.757,68.906 115.078,73.584 115.078,79.355 C115.078,85.126 119.757,89.804 125.527,89.804 L388.841,89.804 C394.611,89.804 399.29,85.126 399.29,79.355 C399.29,73.584 394.611,68.906 388.841,68.906 Z"
				id="Shape"></path>
			<path
				d="M388.775,134.735 L125.461,134.735 C119.691,134.735 115.012,139.413 115.012,145.184 C115.012,150.955 119.691,155.633 125.461,155.633 L388.775,155.633 C394.546,155.633 399.224,150.955 399.224,145.184 C399.224,139.413 394.545,134.735 388.775,134.735 Z"
				id="Shape"></path>
			<path
				d="M388.775,200.563 L334.963,200.563 C329.193,200.563 324.514,205.241 324.514,211.012 C324.514,216.783 329.193,221.461 334.963,221.461 L388.775,221.461 C394.546,221.461 399.224,216.783 399.224,211.012 C399.224,205.241 394.545,200.563 388.775,200.563 Z"
				id="Shape"></path>
			<path
				d="M298.927,200.563 L298.782,200.563 C293.012,200.563 288.333,205.241 288.333,211.012 C288.333,216.783 293.012,221.461 298.782,221.461 L298.927,221.461 C304.697,221.461 309.376,216.783 309.376,211.012 C309.375,205.241 304.696,200.563 298.927,200.563 Z"
				id="Shape"></path>
			<path
				d="M263.387,200.563 L125.461,200.563 C119.691,200.563 115.012,205.241 115.012,211.012 C115.012,216.783 119.691,221.461 125.461,221.461 L263.388,221.461 C269.159,221.461 273.837,216.783 273.837,211.012 C273.836,205.241 269.157,200.563 263.387,200.563 Z"
				id="Shape"></path>
		</g>
	</g>
</svg>
