<?xml version="1.0" standalone="no"?>
<!DOCTYPE svg PUBLIC "-//W3C//DTD SVG 20010904//EN"
 "http://www.w3.org/TR/2001/REC-SVG-20010904/DTD/svg10.dtd">
<svg version="1.0" xmlns="http://www.w3.org/2000/svg"
 width="512.000000pt" height="512.000000pt" viewBox="0 0 512.000000 512.000000"
 preserveAspectRatio="xMidYMid meet">
<metadata>
Created by potrace 1.11, written by Peter Selinger 2001-2013
</metadata>
<g transform="translate(0.000000,512.000000) scale(0.100000,-0.100000)"
fill="#000000" stroke="none">
<path d="M1060 3715 c0 -13 129 -15 1100 -15 971 0 1100 2 1100 15 0 13 -129
15 -1100 15 -971 0 -1100 -2 -1100 -15z"/>
<path d="M1310 3395 l0 -85 335 0 336 0 -3 -617 c-4 -684 -2 -668 -71 -769
-61 -90 -195 -136 -334 -114 -100 16 -167 52 -253 138 l-75 75 -52 -58 c-29
-32 -53 -64 -53 -72 0 -8 31 -44 68 -82 75 -75 172 -129 277 -156 70 -18 232
-20 307 -4 134 29 249 110 306 217 68 127 66 102 69 895 l4 717 -431 0 -430 0
0 -85z"/>
<path d="M2750 2565 l0 -915 608 2 607 3 3 83 3 82 -511 0 -510 0 -2 828 -3
827 -97 3 -98 3 0 -916z"/>
<path d="M1770 1425 c0 -13 129 -15 1100 -15 971 0 1100 2 1100 15 0 13 -129
15 -1100 15 -971 0 -1100 -2 -1100 -15z"/>
</g>
</svg>
